<?xml version="1.0" encoding="UTF-8"?>
<svg id="Layer_2" data-name="Layer 2" xmlns="http://www.w3.org/2000/svg" viewBox="0 0 375.58 90.55">
  <defs>
    <style type="text/css">
      <!-- @import url('https://fonts.googleapis.com/css2?family=Poppins:wght@400;600&display=swap'); -->
      .cls-1 {
        fill:#7D2AE8;
        fill-rule: evenodd;
      }
      .cls-2 {
        fill:#FFFFFF;
        font-family: 'Poppins', sans-serif; /* Change to 'Lato', sans-serif if needed */
        font-weight: 700;
        font-size: 50px;
      }
    </style>
  </defs>
  <g id="Layer_1-2" data-name="Layer 1">
    <path class="cls-1" d="M9.27,44.99c0-2.88,.23-3.9,.58-6.48l.67-2.86c.64-1.94,1.24-3.85,2.11-5.69l.63-1.13c.16-.26,.1-.2,.22-.51,.53-1.31,2.45-4.14,3.39-5.29l1.63-1.9c.38-.38,.46-.58,.8-.96,3.93-4.25,9.43-7.55,14.96-9.32,4.89-1.57,10.27-2.26,15.41-1.54,4.73,.67,8.97,1.88,13.18,4.18l2.08,1.3c1.42,.84,2.78,1.86,4,2.91,1.83,1.58,2.57,2.91,2.57,5.52,0,1.24-.96,2.72-1.81,3.49-1.2,1.1-3.56,1.71-5.35,1.02-.92-.36-4.62-3.92-7.39-5.11-.53-.23-.64-.38-1.28-.63-1.78-.7-3.56-1.38-5.47-1.74-2.1-.4-5.82-.49-7.95-.21-2.55,.33-5.15,1.01-7.45,2.12-2.19,1.06-4.01,2.31-5.92,3.79l-2.02,1.95c-.16,.17-.2,.21-.36,.37l-2.77,3.7c-.22,.4-.33,.68-.57,1.05-1.05,1.61-2.25,4.9-2.65,6.77-.54,2.51-.78,6.67-.27,9.23,.2,1.01,.2,1.65,.52,2.57,.47,1.34,.22,1.5,1.2,3.66,.72,1.59,1.61,3.07,2.51,4.56l1.66,2.16c.5,.56,1.02,.99,1.53,1.56l2.66,2.2c.81,.71,1.8,1.35,2.76,1.8,.44,.21,.59,.37,1.05,.57,1.14,.48,2.09,1.02,3.31,1.4,2.99,.92,1.86,.58,5.14,1.04,1.95,.27,6.74,.27,8.54-.42l3.35-1.07c.77-.37,1.07-.36,1.82-.83,1.2-.74,1.99-1.27,2.87-2.43,1.29-1.71,.77-4.34-.65-5.73-1.67-1.63-3.35-1.58-5.34-.7-.71,.32-1.13,.62-1.88,.92-1.23,.49-3.13,1.07-4.52,1.07-3.67,0-6.48-.39-9.54-2.23-1.97-1.19-3.74-2.77-5.05-4.66-2.32-3.33-3.01-7.36-2.64-11.37,.09-.97,.92-3.85,1.31-4.57,1.43-2.61,3-4.71,5.53-6.39,4.21-2.8,7.32-3.16,12.26-2.52,1.33,.17,1.68,.43,2.71,.82,4.03,1.52,3.23,2.26,6.19,4.26l2.21,1.32c3.15,1.5,5.54,1.45,9.07,1.03,4.47-.53,8.98-3.97,10.71-8.13,1.69-4.07,1.57-5.14,.92-9.04-.39-2.32-1.14-4.19-2.48-6.05C67.18-1.26,44.71-2.49,28.31,2.97-7.26,19.21-8.79,64.44,20.8,83.48c22.12,12.28,43.52,7.99,59.31-8.57,12.04-16.37,12.65-28.66,18.73-49.69,.16-.63,.33-1.12,.51-1.7,.19-.61,.3-1.13,.49-1.87l1.64-5.13c1.16-3.17,4.15-1.08,5.69,.46l9.05,6.99c.48,.46,.65,.61,1.19,1.02l2.52,2.05c.49,.38,.87,.49,1.37,.98,1.13,1.1,3.71,3.05,5.07,4.05,.46,.34,.82,.6,1.25,.95,1.47,1.21,3.5,2.98,5.09,4.03l7.64,6.05c.9,.66,1.96,1.32,1.96,2.61,0,1.63-.73,1.82-1.8,2.91-1.1,1.12-2.37,2.08-3.53,3.09l-12.95,11.33c-.41,.38-.76,.59-1.2,1.01l-2.33,2.08c-.3,.28-.36,.27-.65,.52l-1.7,1.54c-.44,.45-.72,.62-1.18,1.03l-2.28,2.13c-.99,.88-2.14,1.58-3.07,2.52l-1.74,1.5c-1.2,.93-2.26,2.38-3.44,3.18-.98,.66-2.37,.76-3.28,0-.02-.02-.05-.05-.08-.07-1.17-1.11-.86-2.7,.26-3.76,.01-.01,.18-.16,.23-.21l5.72-4.87c.25-.2,.32-.26,.56-.47,.03-.03,.13-.11,.16-.14l4.85-4.27c2.91-2.25,6.08-5.29,9.08-7.69l7.67-6.89c.81-.68,2.9-2.17,2.9-3.28,0-1.25-.04-2.1-.97-3.01-.72-.71-1.77-1.38-2.59-1.97l-5.6-4.4c-.58-.47-1.12-.77-1.69-1.25-.57-.49-.95-.78-1.56-1.24l-9.68-7.54c-2.36-1.54-4.45-2.47-6.93-.47l-.42,.46s-.04,.06-.06,.08c-.29,.39-.96,1.38-.96,1.83,0,2.93,.25,3.56,2.54,5.25l2.27,1.7c.24,.21,.27,.28,.55,.48,.18,.14,.37,.24,.53,.36l4.35,3.59c.8,.63,1.39,1.16,2.19,1.78,.45,.35,.71,.58,1.13,.93,1.29,1.04,3.34,2.23,2.38,4.34-.22,.49-.68,.67-1.03,1.03-.02,.02-.05,.06-.07,.08-.02,.02-.05,.05-.07,.08l-6.27,5.5c-1.99,1.73-3.12,2.93-5.04,4.53-2.7,2.3-10.22,8.04-12.32,11.08-.85,1.23-1.24,2.1-1.6,3.55-.93,3.81,.13,6.89,2.04,10.02,3.98,5.09,10.23,5.38,15.59,2.45,2.88-1.57,8.64-7.21,11.45-9.59,.03-.03,.12-.11,.15-.14,7.58-6.6,15.2-13.14,22.76-19.76,.56-.47,.96-.82,1.54-1.26l.7-.62c2-1.72,4.05-5.5,4.05-8.16,0-2.83-.53-4.29-1.79-6.6-.65-1.2-2.04-2.96-3.19-3.73-1.27-.85-3.52-2.79-4.95-3.88l-1.95-1.58c-10.01-7.39-19.98-17.4-30.35-23.65-1.57-.95-3.46-1.4-5.26-1.65-.94-.13-2.09,.01-3.1,.23-1.33,.29-2.66,.75-3.8,1.5-2.61,1.72-4.15,3.99-5.19,6.87-.33,.9-.37,1.85-.6,2.78l-1.61,5.45c-.2,.59-.25,.61-.4,1.37-.28,1.46-.73,2.56-1.14,4.01l-1.55,5.51c-.14,.47-.32,.9-.43,1.33l-1.97,6.71c-.11,.42-.21,.9-.35,1.42l-1.92,6.76c-.26,.98-.61,1.65-.85,2.68-.12,.55-.17,.92-.33,1.44-.51,1.71-1.14,3.45-1.89,5.02l-2.93,5.75c-.23,.49-.4,.69-.69,1.07l-1.46,2.07c-.88,1.39-3.68,4.12-4.96,5.34-.4,.38-.59,.32-1.03,.73-1.84,1.73-4.09,2.95-6.28,4.17l-3.62,1.67c-.4,.2-.76,.21-1.25,.37-2.94,.98-2.37,.57-4.24,1.05-2.94,.75-1.52,.48-4.51,.64-2.64,.14-4.76,.32-7.55-.1-.75-.11-1.39-.17-2.02-.34l-1.82-.38c-1.49-.31-3.1-.86-4.44-1.45-.03-.01-.07-.03-.1-.04-.09-.04-.12-.04-.22-.08l-3.42-1.58c-2.09-1.08-4.09-2.31-5.87-3.84-1.07-.91-2.25-1.82-3.15-2.88l-1.69-1.85c-.19-.22-.3-.32-.49-.54l-.2-.24c-1.34-1.59-2.5-3.37-3.46-5.22-.25-.49-.54-.86-.81-1.4l-1.32-3.24c-.21-.6-.45-.93-.65-1.55-1.26-3.97-1.78-7.54-1.78-11.75"/>
    <text class="cls-2" transform="translate(164.88 63.64)"><tspan x="0" y="0">Crudpen</tspan></text>
  </g>
</svg>